<svg width="1750" height="365" viewBox="0 0 1750 365" fill="none" xmlns="http://www.w3.org/2000/svg">
<path fill-rule="evenodd" clip-rule="evenodd" d="M213.641 51.1353L188.846 71.7207L240.127 133.486L203.119 164.212L151.839 102.446L127.044 123.032L178.324 184.797L141.317 215.523L90.0363 153.757L65.2417 174.342L188.388 322.668L213.183 302.083L161.902 240.317L198.91 209.592L250.19 271.358L274.985 250.772L223.704 189.006L260.712 158.281L311.993 220.047L336.787 199.461L213.641 51.1353Z" fill="#2EC5B6"/>
<path d="M471.099 141.01C470.46 147.494 470.14 153.339 470.14 158.545C470.14 163.111 470.277 166.856 470.551 169.778H467.4C466.67 162.746 465.756 157.54 464.66 154.161C463.565 150.691 461.647 148.179 458.907 146.627C456.167 144.983 451.966 144.161 446.304 144.161H438.906V222.109C438.906 225.945 439.271 228.73 440.002 230.465C440.733 232.201 442.011 233.388 443.838 234.027C445.664 234.667 448.632 235.078 452.742 235.26V238C447.993 237.726 441.281 237.589 432.604 237.589C423.472 237.589 416.713 237.726 412.33 238V235.26C416.439 235.078 419.408 234.667 421.234 234.027C423.061 233.388 424.339 232.201 425.07 230.465C425.801 228.73 426.166 225.945 426.166 222.109V144.161H418.768C413.106 144.161 408.905 144.983 406.165 146.627C403.425 148.179 401.507 150.691 400.411 154.161C399.315 157.54 398.402 162.746 397.672 169.778H394.521C394.795 166.856 394.932 163.111 394.932 158.545C394.932 153.339 394.612 147.494 393.973 141.01C401.553 141.284 414.43 141.421 432.604 141.421C450.687 141.421 463.519 141.284 471.099 141.01ZM509.352 181.97C511.635 176.217 514.786 172.061 518.804 169.504C522.914 166.856 527.526 165.531 532.64 165.531C539.033 165.531 543.874 167.267 547.162 170.737C548.897 172.564 550.13 174.847 550.86 177.587C551.591 180.326 551.956 184.025 551.956 188.683V225.26C551.956 229.004 552.733 231.607 554.285 233.068C555.838 234.438 558.532 235.123 562.368 235.123V238C553.966 237.635 548.486 237.452 545.929 237.452C543.371 237.452 538.257 237.635 530.586 238V235.123C533.965 235.123 536.294 234.438 537.572 233.068C538.942 231.607 539.627 229.004 539.627 225.26V185.669C539.627 180.555 538.896 176.673 537.435 174.025C535.974 171.285 533.006 169.915 528.531 169.915C524.786 169.915 521.453 170.965 518.53 173.066C515.699 175.166 513.462 178.135 511.818 181.97C510.174 185.715 509.352 189.962 509.352 194.711V225.26C509.352 229.004 509.991 231.607 511.27 233.068C512.64 234.438 515.014 235.123 518.393 235.123V238C510.722 237.635 505.607 237.452 503.05 237.452C500.493 237.452 495.013 237.635 486.611 238V235.123C490.447 235.123 493.141 234.438 494.694 233.068C496.246 231.607 497.023 229.004 497.023 225.26V147.174C497.023 142.973 496.246 139.914 494.694 137.996C493.141 136.078 490.447 135.119 486.611 135.119V132.242C489.534 132.516 492.365 132.653 495.105 132.653C500.858 132.653 505.607 132.014 509.352 130.735V181.97ZM637.424 221.561C635.78 226.584 632.675 230.922 628.109 234.575C623.634 238.137 618.2 239.918 611.807 239.918C605.322 239.918 599.706 238.457 594.957 235.534C590.208 232.52 586.555 228.365 583.997 223.068C581.532 217.68 580.299 211.469 580.299 204.437C580.299 196.492 581.577 189.596 584.134 183.751C586.692 177.906 590.299 173.431 594.957 170.326C599.614 167.13 605.048 165.531 611.259 165.531C619.478 165.531 625.78 168.043 630.164 173.066C634.639 177.998 636.876 185.532 636.876 195.67H593.998C593.724 198.227 593.587 201.149 593.587 204.437C593.587 210.465 594.546 215.716 596.464 220.191C598.473 224.666 601.076 228.137 604.272 230.602C607.56 232.977 610.985 234.164 614.547 234.164C618.93 234.164 622.812 233.114 626.191 231.013C629.57 228.913 632.401 225.397 634.684 220.465L637.424 221.561ZM610.711 168.134C606.418 168.134 602.72 170.235 599.614 174.436C596.509 178.637 594.591 184.847 593.861 193.067H623.725C623.908 185.943 622.857 180.007 620.574 175.258C618.382 170.509 615.095 168.134 610.711 168.134ZM737.275 143.75C733.987 143.932 731.567 144.298 730.015 144.846C728.553 145.394 727.549 146.444 727.001 147.996C726.453 149.549 726.179 152.061 726.179 155.531V223.479C726.179 226.949 726.453 229.461 727.001 231.013C727.549 232.566 728.553 233.616 730.015 234.164C731.567 234.712 733.987 235.078 737.275 235.26V238C733.074 237.726 727.275 237.589 719.877 237.589C712.023 237.589 706.178 237.726 702.342 238V235.26C705.63 235.078 708.005 234.712 709.466 234.164C711.018 233.616 712.069 232.566 712.617 231.013C713.165 229.461 713.439 226.949 713.439 223.479V155.531C713.439 152.061 713.165 149.549 712.617 147.996C712.069 146.444 711.018 145.394 709.466 144.846C708.005 144.298 705.63 143.932 702.342 143.75V141.01C706.178 141.284 712.023 141.421 719.877 141.421C727.183 141.421 732.983 141.284 737.275 141.01V143.75ZM802.602 165.531C808.995 165.531 813.835 167.267 817.123 170.737C818.858 172.564 820.091 174.847 820.822 177.587C821.552 180.326 821.918 184.025 821.918 188.683V225.26C821.918 229.004 822.694 231.607 824.247 233.068C825.799 234.438 828.493 235.123 832.329 235.123V238C823.927 237.635 818.447 237.452 815.89 237.452C813.333 237.452 808.219 237.635 800.547 238V235.123C803.926 235.123 806.255 234.438 807.534 233.068C808.904 231.607 809.588 229.004 809.588 225.26V185.669C809.588 180.555 808.858 176.673 807.397 174.025C805.935 171.285 802.967 169.915 798.492 169.915C794.748 169.915 791.414 171.011 788.492 173.203C785.569 175.395 783.286 178.409 781.642 182.244C780.09 185.989 779.313 190.19 779.313 194.848V225.26C779.313 229.004 779.953 231.607 781.231 233.068C782.601 234.438 784.976 235.123 788.355 235.123V238C780.683 237.635 775.569 237.452 773.012 237.452C770.455 237.452 764.975 237.635 756.573 238V235.123C760.408 235.123 763.103 234.438 764.655 233.068C766.208 231.607 766.984 229.004 766.984 225.26V182.381C766.984 178.18 766.208 175.121 764.655 173.203C763.103 171.285 760.408 170.326 756.573 170.326V167.449C759.495 167.723 762.326 167.86 765.066 167.86C770.82 167.86 775.569 167.221 779.313 165.942V182.107C781.597 176.262 784.747 172.061 788.766 169.504C792.876 166.856 797.488 165.531 802.602 165.531ZM869.958 167.586H890.233V170.326H869.958V223.342C869.958 227.452 870.689 230.42 872.15 232.246C873.702 234.073 875.894 234.986 878.725 234.986C881.557 234.986 883.977 233.845 885.986 231.561C887.995 229.278 889.685 225.534 891.055 220.328L893.795 221.013C891.511 233.616 885.575 239.918 875.986 239.918C872.88 239.918 870.323 239.553 868.314 238.822C866.305 238.091 864.524 236.95 862.971 235.397C860.962 233.388 859.547 230.922 858.725 228C857.994 225.077 857.629 221.15 857.629 216.218V170.326H844.478V167.586H857.629V146.627C862.743 146.444 866.853 145.805 869.958 144.709V167.586ZM965.375 221.561C963.731 226.584 960.626 230.922 956.059 234.575C951.584 238.137 946.15 239.918 939.757 239.918C933.273 239.918 927.656 238.457 922.907 235.534C918.158 232.52 914.505 228.365 911.948 223.068C909.482 217.68 908.249 211.469 908.249 204.437C908.249 196.492 909.528 189.596 912.085 183.751C914.642 177.906 918.25 173.431 922.907 170.326C927.565 167.13 932.999 165.531 939.209 165.531C947.429 165.531 953.731 168.043 958.114 173.066C962.589 177.998 964.827 185.532 964.827 195.67H921.948C921.675 198.227 921.538 201.149 921.538 204.437C921.538 210.465 922.496 215.716 924.414 220.191C926.424 224.666 929.026 228.137 932.223 230.602C935.511 232.977 938.935 234.164 942.497 234.164C946.881 234.164 950.762 233.114 954.142 231.013C957.521 228.913 960.352 225.397 962.635 220.465L965.375 221.561ZM938.661 168.134C934.369 168.134 930.67 170.235 927.565 174.436C924.46 178.637 922.542 184.847 921.811 193.067H951.676C951.858 185.943 950.808 180.007 948.525 175.258C946.333 170.509 943.045 168.134 938.661 168.134ZM1027.41 165.531C1031.07 165.531 1034.03 166.582 1036.32 168.682C1038.69 170.783 1039.88 173.34 1039.88 176.354C1039.88 178.728 1039.15 180.783 1037.69 182.518C1036.32 184.162 1034.45 184.984 1032.07 184.984C1030.06 184.984 1028.33 184.345 1026.86 183.066C1025.49 181.788 1024.81 180.053 1024.81 177.861C1024.81 174.847 1026.36 172.381 1029.47 170.463C1028.83 169.55 1027.87 169.093 1026.59 169.093C1023.03 169.093 1019.79 170.509 1016.86 173.34C1013.94 176.08 1011.66 179.459 1010.01 183.477C1008.37 187.496 1007.55 191.286 1007.55 194.848V223.89C1007.55 228.091 1008.74 231.013 1011.11 232.657C1013.58 234.301 1017.23 235.123 1022.07 235.123V238L1018.78 237.863C1009.47 237.589 1003.53 237.452 1000.97 237.452C998.599 237.452 993.211 237.635 984.808 238V235.123C988.644 235.123 991.338 234.438 992.891 233.068C994.443 231.607 995.22 229.004 995.22 225.26V182.381C995.22 178.18 994.443 175.121 992.891 173.203C991.338 171.285 988.644 170.326 984.808 170.326V167.449C987.731 167.723 990.562 167.86 993.302 167.86C999.056 167.86 1003.8 167.221 1007.55 165.942V183.066C1009.19 178.5 1011.8 174.436 1015.36 170.874C1019.01 167.312 1023.03 165.531 1027.41 165.531ZM1101.43 165.531C1107.82 165.531 1112.66 167.267 1115.95 170.737C1117.69 172.564 1118.92 174.847 1119.65 177.587C1120.38 180.326 1120.75 184.025 1120.75 188.683V225.26C1120.75 229.004 1121.52 231.607 1123.08 233.068C1124.63 234.438 1127.32 235.123 1131.16 235.123V238C1122.76 237.635 1117.28 237.452 1114.72 237.452C1112.16 237.452 1107.05 237.635 1099.38 238V235.123C1102.76 235.123 1105.08 234.438 1106.36 233.068C1107.73 231.607 1108.42 229.004 1108.42 225.26V185.669C1108.42 180.555 1107.69 176.673 1106.23 174.025C1104.76 171.285 1101.8 169.915 1097.32 169.915C1093.58 169.915 1090.24 171.011 1087.32 173.203C1084.4 175.395 1082.12 178.409 1080.47 182.244C1078.92 185.989 1078.14 190.19 1078.14 194.848V225.26C1078.14 229.004 1078.78 231.607 1080.06 233.068C1081.43 234.438 1083.8 235.123 1087.18 235.123V238C1079.51 237.635 1074.4 237.452 1071.84 237.452C1069.28 237.452 1063.8 237.635 1055.4 238V235.123C1059.24 235.123 1061.93 234.438 1063.48 233.068C1065.04 231.607 1065.81 229.004 1065.81 225.26V182.381C1065.81 178.18 1065.04 175.121 1063.48 173.203C1061.93 171.285 1059.24 170.326 1055.4 170.326V167.449C1058.32 167.723 1061.16 167.86 1063.9 167.86C1069.65 167.86 1074.4 167.221 1078.14 165.942V182.107C1080.43 176.262 1083.58 172.061 1087.6 169.504C1091.7 166.856 1096.32 165.531 1101.43 165.531ZM1206.19 221.561C1204.54 226.584 1201.44 230.922 1196.87 234.575C1192.4 238.137 1186.96 239.918 1180.57 239.918C1174.08 239.918 1168.47 238.457 1163.72 235.534C1158.97 232.52 1155.32 228.365 1152.76 223.068C1150.29 217.68 1149.06 211.469 1149.06 204.437C1149.06 196.492 1150.34 189.596 1152.9 183.751C1155.45 177.906 1159.06 173.431 1163.72 170.326C1168.38 167.13 1173.81 165.531 1180.02 165.531C1188.24 165.531 1194.54 168.043 1198.93 173.066C1203.4 177.998 1205.64 185.532 1205.64 195.67H1162.76C1162.49 198.227 1162.35 201.149 1162.35 204.437C1162.35 210.465 1163.31 215.716 1165.23 220.191C1167.23 224.666 1169.84 228.137 1173.03 230.602C1176.32 232.977 1179.75 234.164 1183.31 234.164C1187.69 234.164 1191.57 233.114 1194.95 231.013C1198.33 228.913 1201.16 225.397 1203.45 220.465L1206.19 221.561ZM1179.47 168.134C1175.18 168.134 1171.48 170.235 1168.38 174.436C1165.27 178.637 1163.35 184.847 1162.62 193.067H1192.49C1192.67 185.943 1191.62 180.007 1189.34 175.258C1187.14 170.509 1183.86 168.134 1179.47 168.134ZM1247.68 167.586H1267.95V170.326H1247.68V223.342C1247.68 227.452 1248.41 230.42 1249.87 232.246C1251.42 234.073 1253.61 234.986 1256.44 234.986C1259.27 234.986 1261.69 233.845 1263.7 231.561C1265.71 229.278 1267.4 225.534 1268.77 220.328L1271.51 221.013C1269.23 233.616 1263.29 239.918 1253.7 239.918C1250.6 239.918 1248.04 239.553 1246.03 238.822C1244.02 238.091 1242.24 236.95 1240.69 235.397C1238.68 233.388 1237.26 230.922 1236.44 228C1235.71 225.077 1235.35 221.15 1235.35 216.218V170.326H1222.19V167.586H1235.35V146.627C1240.46 146.444 1244.57 145.805 1247.68 144.709V167.586ZM1395.21 141.01C1394.57 147.494 1394.25 153.339 1394.25 158.545C1394.25 163.111 1394.38 166.856 1394.66 169.778H1391.51C1390.78 162.746 1389.86 157.54 1388.77 154.161C1387.67 150.691 1385.75 148.179 1383.01 146.627C1380.27 144.983 1376.07 144.161 1370.41 144.161H1361.78C1358.49 144.161 1356.07 144.435 1354.52 144.983C1353.06 145.439 1352.05 146.444 1351.51 147.996C1350.96 149.549 1350.68 152.061 1350.68 155.531V189.231H1360.68C1363.88 189.231 1366.35 188.5 1368.08 187.039C1369.82 185.487 1370.96 183.706 1371.51 181.696C1372.15 179.596 1372.65 176.993 1373.01 173.888L1373.43 171.148H1376.58C1376.3 174.984 1376.16 179.276 1376.16 184.025V190.601C1376.16 195.259 1376.44 201.743 1376.99 210.054H1373.84C1373.74 209.414 1373.47 207.223 1373.01 203.478C1372.56 199.642 1371.28 196.765 1369.18 194.848C1367.17 192.93 1364.34 191.971 1360.68 191.971H1350.68V223.479C1350.68 226.949 1351.05 229.461 1351.78 231.013C1352.51 232.566 1353.79 233.616 1355.62 234.164C1357.44 234.712 1360.41 235.078 1364.52 235.26V238C1359.77 237.726 1353.06 237.589 1344.38 237.589C1336.53 237.589 1330.68 237.726 1326.85 238V235.26C1330.14 235.078 1332.51 234.712 1333.97 234.164C1335.52 233.616 1336.57 232.566 1337.12 231.013C1337.67 229.461 1337.94 226.949 1337.94 223.479V155.531C1337.94 152.061 1337.67 149.549 1337.12 147.996C1336.57 146.444 1335.52 145.394 1333.97 144.846C1332.51 144.298 1330.14 143.932 1326.85 143.75V141.01C1335.8 141.284 1349.04 141.421 1366.58 141.421C1380 141.421 1389.54 141.284 1395.21 141.01ZM1442.87 165.531C1452.18 165.531 1459.67 168.637 1465.34 174.847C1471.09 180.966 1473.97 190.281 1473.97 202.793C1473.97 215.305 1471.09 224.62 1465.34 230.739C1459.67 236.858 1452.18 239.918 1442.87 239.918C1433.55 239.918 1426.02 236.858 1420.27 230.739C1414.6 224.62 1411.77 215.305 1411.77 202.793C1411.77 190.281 1414.6 180.966 1420.27 174.847C1426.02 168.637 1433.55 165.531 1442.87 165.531ZM1442.87 168.271C1437.39 168.271 1433.05 171.102 1429.85 176.765C1426.66 182.336 1425.06 191.012 1425.06 202.793C1425.06 214.574 1426.66 223.251 1429.85 228.822C1433.05 234.393 1437.39 237.178 1442.87 237.178C1448.35 237.178 1452.69 234.393 1455.88 228.822C1459.08 223.251 1460.68 214.574 1460.68 202.793C1460.68 191.012 1459.08 182.336 1455.88 176.765C1452.69 171.102 1448.35 168.271 1442.87 168.271ZM1514.39 225.26C1514.39 229.004 1515.17 231.607 1516.72 233.068C1518.27 234.438 1520.97 235.123 1524.8 235.123V238C1516.4 237.635 1510.87 237.452 1508.23 237.452C1505.58 237.452 1500.05 237.635 1491.65 238V235.123C1495.49 235.123 1498.18 234.438 1499.73 233.068C1501.29 231.607 1502.06 229.004 1502.06 225.26V147.037C1502.06 142.836 1501.29 139.777 1499.73 137.859C1498.18 135.941 1495.49 134.982 1491.65 134.982V132.105C1494.48 132.379 1497.31 132.516 1500.14 132.516C1505.9 132.516 1510.65 131.877 1514.39 130.598V225.26ZM1602.22 228C1603.96 230.283 1605.51 231.972 1606.88 233.068C1608.25 234.164 1609.89 234.849 1611.81 235.123V238C1606.33 237.635 1602.63 237.452 1600.71 237.452C1598.25 237.452 1593.18 237.635 1585.51 238V235.123C1586.79 235.123 1587.79 234.895 1588.52 234.438C1589.34 233.89 1589.75 233.251 1589.75 232.52C1589.75 231.79 1589.48 231.105 1588.93 230.465L1573.18 207.451C1571.63 205.168 1570.12 203.661 1568.66 202.93C1567.29 202.108 1565.37 201.606 1562.9 201.423V225.26C1562.9 229.004 1563.54 231.607 1564.82 233.068C1566.19 234.438 1568.57 235.123 1571.95 235.123V238C1564.27 237.635 1559.21 237.452 1556.74 237.452C1554.09 237.452 1548.57 237.635 1540.16 238V235.123C1544 235.123 1546.69 234.438 1548.25 233.068C1549.8 231.607 1550.57 229.004 1550.57 225.26V147.037C1550.57 142.836 1549.8 139.777 1548.25 137.859C1546.69 135.941 1544 134.982 1540.16 134.982V132.105C1543.09 132.379 1545.92 132.516 1548.66 132.516C1554.41 132.516 1559.16 131.877 1562.9 130.598V198.546C1565.55 198.181 1567.74 197.587 1569.48 196.765C1571.31 195.852 1573.04 194.574 1574.69 192.93L1584.82 182.381C1587.74 179.368 1589.21 176.856 1589.21 174.847C1589.21 173.294 1588.25 172.153 1586.33 171.422C1584.5 170.6 1582.08 170.189 1579.07 170.189V167.449C1585.46 167.815 1590.62 167.997 1594.55 167.997C1598.84 167.997 1602.81 167.815 1606.47 167.449V170.189C1601.99 170.554 1597.88 172.701 1594.14 176.628L1577.42 194.163L1602.22 228ZM1650.83 165.531C1654.11 165.531 1657.04 166.034 1659.59 167.038C1662.15 168.043 1664.21 169.23 1665.76 170.6C1666.76 171.331 1667.58 171.696 1668.22 171.696C1669.87 171.696 1670.87 169.687 1671.24 165.668H1674.39C1674.02 170.143 1673.84 177.906 1673.84 188.957H1670.69C1669.68 182.929 1667.72 177.952 1664.8 174.025C1661.97 170.098 1657.72 168.134 1652.06 168.134C1648.77 168.134 1646.08 169.093 1643.98 171.011C1641.88 172.838 1640.83 175.395 1640.83 178.683C1640.83 181.879 1641.92 184.573 1644.11 186.765C1646.3 188.866 1649.82 191.423 1654.66 194.437C1655.48 194.893 1656.72 195.67 1658.36 196.765C1662.56 199.505 1665.94 201.926 1668.5 204.026C1671.05 206.127 1673.11 208.547 1674.66 211.287C1676.31 214.026 1677.13 217.177 1677.13 220.739C1677.13 226.767 1674.84 231.47 1670.28 234.849C1665.8 238.228 1660.28 239.918 1653.7 239.918C1649.59 239.918 1645.99 239.279 1642.88 238C1640.87 236.995 1639 235.762 1637.26 234.301C1636.9 233.936 1636.49 233.753 1636.03 233.753C1635.39 233.753 1634.8 234.21 1634.25 235.123C1633.79 236.036 1633.43 237.315 1633.15 238.959H1630C1630.37 233.753 1630.55 224.62 1630.55 211.561H1633.7C1634.71 220.145 1636.53 226.584 1639.18 230.876C1641.83 235.078 1646.35 237.178 1652.74 237.178C1655.94 237.178 1658.77 236.128 1661.24 234.027C1663.7 231.927 1664.94 228.639 1664.94 224.164C1664.94 220.602 1663.7 217.588 1661.24 215.122C1658.86 212.657 1654.94 209.688 1649.46 206.218C1644.98 203.387 1641.51 201.058 1639.04 199.231C1636.67 197.405 1634.66 195.167 1633.02 192.519C1631.37 189.87 1630.55 186.765 1630.55 183.203C1630.55 177.45 1632.47 173.066 1636.3 170.052C1640.14 167.038 1644.98 165.531 1650.83 165.531Z" fill="#3D3D3D"/>
</svg>
